<svg width="36" height="36" viewBox="0 0 36 36" fill="none" xmlns="http://www.w3.org/2000/svg">
<path d="M10 14V22.8C10 23.9201 10 24.4798 10.218 24.9076C10.4097 25.2839 10.7155 25.5905 11.0918 25.7822C11.5192 26 12.079 26 13.1969 26H22.8031C23.921 26 24.48 26 24.9074 25.7822C25.2837 25.5905 25.5905 25.2839 25.7822 24.9076C26 24.4802 26 23.921 26 22.8031V14M10 14H26M10 14L11.3652 11.6109C11.7002 11.0246 11.8677 10.7315 12.1033 10.5181C12.3118 10.3291 12.5586 10.1861 12.8262 10.0987C13.1286 10 13.4662 10 14.1426 10H21.8571C22.5334 10 22.8723 10 23.1747 10.0987C23.4423 10.1861 23.6879 10.3291 23.8965 10.5181C24.1322 10.7317 24.3002 11.0251 24.6357 11.6123L26 14M18 17V23M18 23L21 21M18 23L15 21" stroke="black" stroke-width="2" stroke-linecap="round" stroke-linejoin="round"/>
</svg>
