<svg width="38" height="38" viewBox="0 0 38 38" fill="none" xmlns="http://www.w3.org/2000/svg">
<path d="M24.2166 26.3323C22.9349 24.9008 21.0727 24 19 24C16.9273 24 15.0649 24.9008 13.7832 26.3323M19 28C14.0294 28 10 23.9706 10 19C10 14.0294 14.0294 10 19 10C23.9706 10 28 14.0294 28 19C28 23.9706 23.9706 28 19 28ZM19 21C17.3431 21 16 19.6569 16 18C16 16.3431 17.3431 15 19 15C20.6569 15 22 16.3431 22 18C22 19.6569 20.6569 21 19 21Z" stroke="black" stroke-width="2" stroke-linecap="round" stroke-linejoin="round"/>
</svg>
