<svg width="73" height="14" viewBox="0 0 73 14" fill="none" xmlns="http://www.w3.org/2000/svg">
<circle cx="68.8228" cy="7.12726" r="3.81818" fill="#48FB77"/>
<path d="M31.6473 13.468L40.0025 3.32501C39.6792 3.08701 36.4607 0.525018 31.6401 0.525018C26.8124 0.525018 23.601 3.08701 23.2778 3.32501L31.633 13.468L31.6401 13.475L31.6473 13.468Z" fill="#1E1E1E"/>
<path d="M0 14H14.3684V0L0 14Z" fill="#1E1E1E"/>
<path d="M55.1401 1.40003H53.9403V3.0701e-05H51.0666V1.40003H49.8669C49.3424 1.40003 48.9114 1.82003 48.9114 2.33103V13.062C48.9114 13.58 49.3424 14 49.8669 14H55.1329C55.6645 14 56.0956 13.58 56.0956 13.069V2.33103C56.0956 1.82003 55.6645 1.40003 55.1401 1.40003Z" fill="#1E1E1E"/>
</svg>
