<svg width="36" height="37" viewBox="0 0 36 37" fill="none" xmlns="http://www.w3.org/2000/svg">
<path d="M26 23.3425V17.7945C26 17.2602 25.9995 16.9929 25.9346 16.7442C25.877 16.5239 25.7825 16.3154 25.6546 16.1269C25.5102 15.9143 25.3096 15.738 24.9074 15.3861L20.1074 11.1861C19.3608 10.5328 18.9875 10.2063 18.5674 10.0821C18.1972 9.97263 17.8026 9.97263 17.4324 10.0821C17.0126 10.2063 16.6398 10.5324 15.8944 11.1847L11.0928 15.3861C10.6906 15.738 10.49 15.9143 10.3457 16.1269C10.2178 16.3154 10.1225 16.5239 10.065 16.7442C10 16.9929 10 17.2602 10 17.7945V23.3425C10 24.2743 10 24.7401 10.1522 25.1076C10.3552 25.5977 10.7443 25.9875 11.2344 26.1905C11.6019 26.3427 12.0679 26.3427 12.9997 26.3427C13.9316 26.3427 14.3981 26.3427 14.7656 26.1905C15.2557 25.9875 15.6447 25.5978 15.8477 25.1077C15.9999 24.7402 16 24.2742 16 23.3424V22.3424C16 21.2378 16.8954 20.3424 18 20.3424C19.1046 20.3424 20 21.2378 20 22.3424V23.3424C20 24.2742 20 24.7402 20.1522 25.1077C20.3552 25.5978 20.7443 25.9875 21.2344 26.1905C21.6019 26.3427 22.0679 26.3427 22.9997 26.3427C23.9316 26.3427 24.3981 26.3427 24.7656 26.1905C25.2557 25.9875 25.6447 25.5977 25.8477 25.1076C25.9999 24.7401 26 24.2743 26 23.3425Z" stroke="black" stroke-width="2" stroke-linecap="round" stroke-linejoin="round"/>
</svg>
