<svg width="180" height="24" viewBox="0 0 180 24" fill="none" xmlns="http://www.w3.org/2000/svg">
<path d="M165.338 15.9905C168.495 15.8151 171 13.2003 171 10C171 6.68629 168.314 4 165 4C161.686 4 159 6.68629 159 10C159 11.1807 159.341 12.2817 159.93 13.21L159.506 14.482L159.505 14.4839C159.343 14.9711 159.262 15.2149 159.319 15.3771C159.37 15.5184 159.482 15.6299 159.623 15.6803C159.785 15.7379 160.027 15.6573 160.511 15.4959L160.518 15.4939L161.79 15.0698C162.718 15.6588 163.819 15.9998 165 15.9998C165.114 15.9998 165.226 15.9967 165.338 15.9905ZM165.338 15.9905C165.338 15.9907 165.338 15.9902 165.338 15.9905ZM165.338 15.9905C166.159 18.3259 168.384 20.0002 171 20.0002C172.181 20.0002 173.282 19.6588 174.21 19.0698L175.482 19.4939L175.485 19.4944C175.972 19.6567 176.216 19.7381 176.378 19.6803C176.519 19.6299 176.63 19.5184 176.68 19.3771C176.738 19.2146 176.657 18.9706 176.494 18.4821L176.07 17.21L176.212 16.9746C176.714 16.0979 176.999 15.0823 176.999 14C176.999 10.6863 174.314 8 171 8L170.775 8.00414L170.662 8.00967" stroke="#323232" stroke-width="2" stroke-linecap="round" stroke-linejoin="round"/>
<path d="M8.5 20.825H1V10.9786C1 10.3631 1 10.0552 1.08121 9.76876C1.15319 9.51494 1.27224 9.27475 1.43213 9.05769C1.61255 8.81277 1.8633 8.60966 2.36597 8.20434L8.36795 3.3647C9.29981 2.61331 9.76577 2.23759 10.2905 2.09458C10.7533 1.96847 11.2465 1.96847 11.7092 2.09458C12.2344 2.2377 12.701 2.61377 13.6343 3.3663L19.6343 8.20434C20.1369 8.60965 20.3878 8.81277 20.5682 9.05769C20.7281 9.27475 20.8462 9.51494 20.9182 9.76876C20.9994 10.0552 21 10.3631 21 10.9786V20.825H13.5H8.5Z" fill="#699CFF"/>
<path d="M8.5 20.825H1V10.9786C1 10.3631 1 10.0552 1.08121 9.76876C1.15319 9.51494 1.27224 9.27475 1.43213 9.0577C1.61255 8.81277 1.8633 8.60966 2.36597 8.20434L8.36795 3.3647C9.29981 2.61331 9.76577 2.23759 10.2905 2.09458C10.7533 1.96847 11.2465 1.96847 11.7092 2.09458C12.2344 2.2377 12.701 2.61377 13.6343 3.3663L19.6343 8.20434C20.1369 8.60965 20.3878 8.81277 20.5682 9.05769C20.7281 9.27475 20.8462 9.51494 20.9182 9.76876C20.9994 10.0552 21 10.3631 21 10.9786V20.825H13.5M8.5 20.825H13.5M8.5 20.825V16.2173C8.5 14.945 9.61929 13.9135 11 13.9135C12.3807 13.9135 13.5 14.945 13.5 16.2173V20.825" stroke="white" stroke-width="2" stroke-linecap="round" stroke-linejoin="round"/>
</svg>
