<svg width="25" height="24" viewBox="0 0 25 24" fill="none" xmlns="http://www.w3.org/2000/svg">
<path d="M5.5 18V12V18ZM5.5 13H3.5C2.94771 13 2.5 13.4477 2.5 14V18C2.5 18.5523 2.94771 19 3.5 19H5.5V13Z" stroke="#5AC378" stroke-width="2" stroke-linecap="round" stroke-linejoin="round"/>
<path d="M19.5 12V18V12ZM19.5 13H21.5C22.0523 13 22.5 13.4477 22.5 14V18C22.5 18.5523 22.0523 19 21.5 19H19.5V13Z" stroke="#5AC378" stroke-width="2" stroke-linecap="round" stroke-linejoin="round"/>
<path d="M19.5 13V19M5.5 18V12C5.5 8.134 8.634 5 12.5 5C16.366 5 19.5 8.134 19.5 12V18H5.5ZM5.5 13V19V13Z" stroke="#5AC378" stroke-width="2" stroke-linecap="round" stroke-linejoin="round"/>
<path d="M8.5 16H10.5L11.5 13L13.5 19L14.5 16H16.5" stroke="#5AC378" stroke-width="2" stroke-linecap="round" stroke-linejoin="round"/>
</svg>
