<svg width="18" height="20" viewBox="0 0 18 20" fill="none" xmlns="http://www.w3.org/2000/svg">
<path id="Vector" d="M17 15.1711V9.62312C17 9.08879 16.9995 8.82147 16.9346 8.57283C16.877 8.35249 16.7825 8.14397 16.6546 7.95554C16.5102 7.74291 16.3096 7.56659 15.9074 7.21473L11.1074 3.01472C10.3608 2.36144 9.98751 2.03496 9.56738 1.91072C9.19719 1.80124 8.80261 1.80124 8.43242 1.91072C8.01261 2.03487 7.63985 2.36104 6.89436 3.01333L2.09277 7.21473C1.69064 7.56659 1.49004 7.74291 1.3457 7.95554C1.21779 8.14397 1.12255 8.35249 1.06497 8.57283C1 8.82147 1 9.08878 1 9.62312V15.1711C1 16.1029 1 16.5687 1.15224 16.9363C1.35523 17.4263 1.74432 17.8161 2.23438 18.0191C2.60192 18.1714 3.06786 18.1714 3.99974 18.1714C4.93163 18.1714 5.39808 18.1714 5.76562 18.0191C6.25568 17.8161 6.64467 17.4264 6.84766 16.9363C6.9999 16.5688 7 16.1029 7 15.171V14.171C7 13.0664 7.89543 12.171 9 12.171C10.1046 12.171 11 13.0664 11 14.171V15.171C11 16.1029 11 16.5688 11.1522 16.9363C11.3552 17.4264 11.7443 17.8161 12.2344 18.0191C12.6019 18.1714 13.0679 18.1714 13.9997 18.1714C14.9316 18.1714 15.3981 18.1714 15.7656 18.0191C16.2557 17.8161 16.6447 17.4263 16.8477 16.9362C16.9999 16.5687 17 16.1029 17 15.1711Z" stroke="black" stroke-width="2" stroke-linecap="round" stroke-linejoin="round"/>
</svg>
